<svg width="36" height="36" viewBox="0 0 36 36" fill="none" xmlns="http://www.w3.org/2000/svg" aria-hidden="true"
  class="hidden h-8 w-auto lg:block">
  <path fill-rule="evenodd" clip-rule="evenodd"
    d="M18 0C27.9411 0 36 8.05887 36 18C36 27.9411 27.9411 36 18 36C8.05887 36 0 27.9411 0 18C0 8.05887 8.05887 0 18 0ZM7.09092 26.7117L9.2883 28.9091L16.6316 21.5657C15.6236 21.1787 14.8213 20.3764 14.4343 19.3683L7.09092 26.7117ZM21.5657 19.3683C21.1786 20.3764 20.3764 21.1787 19.3683 21.5657L26.7117 28.9091L28.9091 26.7117L21.5657 19.3683ZM7.09092 9.28831L14.4343 16.6317C14.8213 15.6236 15.6236 14.8213 16.6316 14.4343L9.2883 7.09092L7.09092 9.28831ZM19.3683 14.4343C20.3764 14.8213 21.1786 15.6236 21.5657 16.6317L28.9091 9.28831L26.7117 7.09092L19.3683 14.4343Z"
    fill="#6CF9D8"></path>
</svg>