<svg xmlns="http://www.w3.org/2000/svg" viewBox="0 0 31 32" fill="none" role="img" aria-label="Allbridge">
<path d="M23.59 16.2777C23.59 20.7699 19.9675 24.4116 15.499 24.4116C11.0304 24.4116 7.40796 20.7699 7.40796 16.2777M23.59 16.2777C23.59 11.7855 19.9675 8.14378 15.499 8.14378C11.0304 8.14378 7.40796 11.7855 7.40796 16.2777M23.59 16.2777L23.59 30.0005M7.40796 16.2777L7.40796 2.69336" stroke="white" stroke-width="3.14394" stroke-linecap="round"/>
<path d="M15.0953 30.0001L14.3209 30.0001C7.37548 30.0001 1.74512 24.3697 1.74512 17.4243L1.74512 6.53613" stroke="white" stroke-width="3.14394" stroke-linecap="round"/>
<path d="M15.9045 2.4914L16.6789 2.4914C23.6243 2.4914 29.2546 8.12175 29.2546 15.0671L29.2546 25.5508" stroke="white" stroke-width="3.14394" stroke-linecap="round"/>
</svg>
