<svg xmlns="http://www.w3.org/2000/svg" viewBox="0 0 636 636" fill="none" role="img" aria-label="Bungee">
  <g transform="translate(0 224.5)">
  <path
    d="M64.038 156.971C99.4056 156.971 128.076 128.289 128.076 92.9061C128.076 57.5235 99.4056 28.841 64.0381 28.841C28.6719 28.8409 -5.01289e-06 57.5235 -1.11968e-05 92.9061C-1.73806e-05 128.289 28.6719 156.971 64.038 156.971Z"
    fill="#F22276" />
  <path
    d="M571.962 156.971C607.329 156.971 636 128.289 636 92.9061C636 57.5235 607.329 28.841 571.962 28.841C536.596 28.8409 507.924 57.5235 507.924 92.9061C507.924 128.289 536.596 156.971 571.962 156.971Z"
    fill="#61E294" />
  <path
    d="M179.357 165.811C190.115 179.937 206.027 187 227.095 187C238.302 187 247.715 184.982 255.335 180.946C262.955 176.91 269.231 170.52 274.162 161.775C279.317 152.806 283.575 141.371 286.937 127.469H293.661L294.669 182.291H295.271H337.701H349.397V101.572C349.397 91.0336 350.742 81.5042 353.431 72.9838C356.121 64.4634 360.155 57.6247 365.534 52.4676C371.137 47.3106 378.197 44.732 386.714 44.732C397.024 44.732 404.756 48.9922 409.911 57.5126C415.29 65.8088 417.98 79.1499 417.98 97.536V182.291H472.442V91.482C472.442 59.6427 466.951 36.4359 455.969 21.8615C445.211 7.28717 429.41 0 408.566 0C397.36 0 387.61 2.1301 379.318 6.39031C371.025 10.4263 364.189 16.7045 358.81 25.2248C353.431 33.7452 349.285 44.2836 346.371 56.8399H339.648L338.975 4.70865H337.701H295.271H283.575V83.0737C283.575 91.5941 282.791 99.4419 281.222 106.617C279.877 113.792 277.636 120.182 274.498 125.788C271.584 131.169 267.886 135.429 263.404 138.568C259.145 141.483 253.99 142.941 247.939 142.941C237.853 142.941 230.345 138.905 225.414 130.833C220.484 122.537 218.018 110.092 218.018 93.5V4.70865H163.556V100.563C163.556 129.712 168.823 151.461 179.357 165.811Z"
    fill="#000000" />
  </g>
</svg>
