<svg xmlns="http://www.w3.org/2000/svg" viewBox="0 0 58 58" fill="none" role="img" aria-label="DeBridge">
  <g transform="translate(0 11.9)">
  <path fill-rule="evenodd" clip-rule="evenodd"
    d="M49.868 34.1233H57.414C57.414 33.8076 57.4088 33.4932 57.3986 33.18H51.5116L57.3371 32.0213C57.2882 31.3556 57.2163 30.6964 57.1222 30.0444L51.5997 31.1429L56.9388 28.9314C56.81 28.2371 56.6559 27.5518 56.4775 26.8763L51.2526 29.0406L56.1585 25.7625C55.9373 25.0462 55.6885 24.3421 55.4132 23.6514L50.4485 26.9686L54.9221 22.4951C54.5941 21.7683 54.2363 21.0579 53.8503 20.3654L49.1899 25.0258L53.1245 19.1373C52.675 18.4188 52.1942 17.7219 51.684 17.0486L47.4983 23.3129L50.6335 15.744C50.0503 15.062 49.4353 14.408 48.7907 13.7843L45.5925 21.5054C48.2742 25.0018 49.868 29.3764 49.868 34.1233ZM8.36529 34.1233C8.36529 33.5517 8.3884 32.9855 8.43374 32.4255H0.869424C0.836189 32.9872 0.819336 33.5533 0.819336 34.1233H8.36529ZM8.93126 29.2895L1.52479 27.8162C1.77195 26.7305 2.08154 25.6684 2.44961 24.6341L9.96138 26.1283C9.53711 27.1437 9.19122 28.1999 8.93126 29.2895ZM11.4009 23.3115L4.36532 20.3973C4.89414 19.4457 5.47625 18.5279 6.1076 17.6477L13.3394 20.6432C12.6255 21.4779 11.9767 22.37 11.4009 23.3115ZM15.4808 18.4805L9.04287 14.1788C9.7977 13.4191 10.5954 12.702 11.4319 12.0315L18.1367 16.5115C17.1985 17.0976 16.3106 17.7566 15.4808 18.4805ZM20.6207 15.1852L15.0182 9.58263C15.9339 9.05546 16.8818 8.57806 17.8583 8.15412L23.7711 14.0669C22.6833 14.3561 21.6306 14.7314 20.6207 15.1852ZM26.2047 13.5746L21.6858 6.81167C22.6914 6.53873 23.7192 6.31984 24.766 6.15831L29.5895 13.3772C29.4323 13.3736 29.2747 13.3719 29.1167 13.3719C28.1283 13.3719 27.1562 13.441 26.2047 13.5746ZM31.6287 13.5224L28.444 5.83377C28.6676 5.82855 28.8918 5.82593 29.1167 5.82593C29.9351 5.82593 30.7454 5.86067 31.5462 5.92877L34.9768 14.2109C33.8948 13.893 32.7762 13.6608 31.6287 13.5224ZM36.4351 14.6992L34.783 6.39336C35.7836 6.59674 36.765 6.85291 37.7242 7.15885L39.5149 16.1611C38.5362 15.5933 37.5067 15.1032 36.4351 14.6992ZM40.3728 16.687V8.15316C41.2787 8.54636 42.1601 8.98557 43.0139 9.46785V18.7124C42.1906 17.9695 41.3076 17.2917 40.3728 16.687ZM43.391 19.0612L45.0476 10.7331C45.8286 11.2661 46.5817 11.8372 47.3039 12.4438L45.5201 21.4116C44.8707 20.5747 44.1586 19.7889 43.391 19.0612Z"
    fill="#D5D931" />
  <path fill-rule="evenodd" clip-rule="evenodd"
    d="M42.322 34.123H49.868C49.868 33.7618 49.8588 33.4028 49.8405 33.0462L46.0869 32.9807L49.79 32.311C49.7122 31.4123 49.5772 30.53 49.3886 29.6677L45.1368 30.4366L49.1895 28.8402C48.9693 28.001 48.6978 27.1827 48.3787 26.3886L43.7407 28.2155L47.9892 25.4828C47.6414 24.7242 47.2491 23.9903 46.8158 23.2842L41.9907 26.3878L46.1932 22.3295C45.7365 21.6695 45.2426 21.0372 44.7144 20.4358L39.983 25.0048L43.8176 19.4772C43.2733 18.9308 42.6987 18.4146 42.0966 17.9313L37.8215 24.0939L40.8914 17.0335C40.2828 16.6133 39.6506 16.2248 38.9972 15.8704L35.9698 22.8329C39.7784 25.1496 42.322 29.3393 42.322 34.123ZM15.9112 34.123H8.36523C8.36523 33.7724 8.37393 33.4237 8.39112 33.0773L15.9423 33.2091C15.9217 33.5111 15.9112 33.8158 15.9112 34.123ZM37.4648 15.1192C36.8176 14.8345 36.153 14.5819 35.4732 14.3633L33.8597 21.795C34.5388 22.0565 35.191 22.3724 35.8107 22.7376L37.4648 15.1192ZM33.6207 13.8618C32.963 13.7163 32.2936 13.6019 31.6141 13.5204L31.4813 21.1287C32.1691 21.2531 32.8383 21.4307 33.4846 21.6571L33.6207 13.8618ZM29.1166 13.3716C28.5877 13.3716 28.0633 13.3914 27.5443 13.4303L28.8985 20.9194C28.9711 20.9182 29.0438 20.9176 29.1166 20.9176C29.7104 20.9176 30.295 20.9568 30.8681 21.0327L29.4833 13.3748C29.3613 13.3727 29.2391 13.3716 29.1166 13.3716ZM25.1789 21.5147L21.0006 15.0188C20.464 15.247 19.9389 15.4972 19.4266 15.7683L23.5331 22.1526C24.0635 21.9048 24.613 21.6912 25.1789 21.5147ZM22.4097 22.7452L17.0749 17.2208C16.6281 17.5397 16.1945 17.8759 15.775 18.2283L21.0368 23.6771C21.4735 23.3389 21.9319 23.0274 22.4097 22.7452ZM13.6572 20.2798C13.3133 20.6636 12.9835 21.0602 12.6686 21.469L18.8811 25.7787C19.2092 25.3766 19.5607 24.9942 19.9332 24.6336L13.6572 20.2798ZM10.9577 24.0716C10.7238 24.4932 10.5043 24.9237 10.2996 25.3626L17.225 28.3739C17.437 27.9363 17.6724 27.5121 17.9296 27.1031L10.9577 24.0716ZM9.15997 28.4157C9.03671 28.8475 8.92709 29.285 8.8316 29.7278L16.2073 31.3293C16.303 30.8849 16.4211 30.4489 16.5602 30.0224L9.15997 28.4157ZM28.0556 20.9596C27.4255 21.0097 26.8079 21.104 26.2058 21.2395L23.4186 14.1637C24.0059 13.9964 24.6039 13.8542 25.2112 13.7386L28.0556 20.9596Z"
    fill="#D5D931" />
  <path fill-rule="evenodd" clip-rule="evenodd"
    d="M41.2691 34.1229L42.3225 34.0861C42.3219 33.8754 42.3164 33.6658 42.306 33.4575L35.9048 33.681L35.7927 33.6628L42.1775 32.1593C42.1418 31.9194 42.0996 31.6817 42.0511 31.4462L35.9876 32.8739L41.7455 30.2499C41.665 29.9872 41.5765 29.7279 41.4804 29.4724L36.0879 31.9298L41.0136 28.3839C40.8797 28.1069 40.7365 27.8353 40.5842 27.5695L35.9476 30.9074L39.9685 26.5955C39.7739 26.3155 39.5687 26.0434 39.3535 25.7797L35.5417 29.8674L38.5971 24.9298C38.3363 24.6609 38.0641 24.403 37.7813 24.157L34.8602 28.8774L36.8906 23.4468C36.5609 23.2063 36.2196 22.9807 35.8677 22.771L33.9104 28.006L34.852 22.2244C34.4553 22.0329 34.0475 21.8605 33.6299 21.7087L32.7158 27.3218L32.5075 21.3568C32.0519 21.2361 31.5866 21.1391 31.1131 21.0673L31.3163 26.8864L29.9164 20.9413C29.652 20.9255 29.3855 20.9175 29.1171 20.9175C28.8755 20.9175 28.6355 20.924 28.3972 20.9368L29.7671 26.7547L27.1718 21.0598C26.6352 21.139 26.1092 21.2505 25.5956 21.3922L28.136 26.9665L24.4045 21.7832C23.8725 21.9864 23.357 22.2232 22.8606 22.4907L26.5015 27.5482L21.7777 23.1432C21.2822 23.4751 20.8104 23.8396 20.3654 24.2337L24.9467 28.5058L19.4632 25.1125C19.0379 25.568 18.6444 26.0536 18.2864 26.5658L23.5594 29.8288L17.6264 27.6106C17.3057 28.1753 17.0254 28.7661 16.7894 29.3788L22.4241 31.4855L16.4129 30.5066C16.2284 31.1558 16.0924 31.8255 16.009 32.5114L21.618 33.4249L15.9209 33.6238C15.9147 33.7894 15.9116 33.9558 15.9116 34.1229H23.4576C23.4576 30.9973 25.9914 28.4634 29.1171 28.4634C32.2427 28.4634 34.7765 30.9973 34.7765 34.1229L41.2691 34.1229Z"
    fill="#D5D931" />
  </g>
</svg>
