<svg viewBox="0 -79.5 805 805" fill="none" xmlns="http://www.w3.org/2000/svg" role="img" aria-label="Owlto">
<path d="M138.071 469.346C83.7089 468.786 57.4487 500.855 57.7601 557.814C58.0536 613.27 84.1715 645.526 138.071 645.508C191.436 645.49 217.847 613.27 217.607 557.814C217.358 501.824 190.929 469.889 138.071 469.346ZM136.514 612.914C108.537 612.389 92.8092 593.014 93.0583 557.814C93.3073 522.08 109.311 501.922 137.297 501.94C164.758 501.958 179.711 522.107 179.978 557.814C180.245 594.037 164.962 613.448 136.514 612.914Z" fill="white"/>
<path d="M437.865 522.909H405.253C403.243 522.909 401.508 524.296 401.063 526.262L381.066 615.059H380.292C379.367 608.201 361.913 541.554 357.848 526.093C357.35 524.207 355.651 522.909 353.694 522.909H323.101C321.135 522.909 319.418 524.234 318.938 526.138C314.908 542.168 297.25 612.453 297.25 614.285H296.476C296.476 612.462 280.242 542.39 276.488 526.218C276.034 524.27 274.308 522.909 272.307 522.909H239.668C236.706 522.909 234.633 525.835 235.612 528.629L275.287 641.88C275.892 643.606 277.52 644.753 279.343 644.753H311.893C313.796 644.753 315.469 643.508 316.011 641.684L338.384 566.391H339.158L359.262 641.578C359.76 643.454 361.468 644.762 363.417 644.762H398.208C400.031 644.762 401.659 643.606 402.264 641.889L441.939 528.638C442.9 525.826 440.827 522.909 437.865 522.909Z" fill="white"/>
<path d="M459.935 640.446C459.935 642.822 461.856 644.743 464.232 644.743H493.668C496.043 644.743 497.964 642.822 497.964 640.446V468.973L459.935 463.92V640.446Z" fill="white"/>
<path d="M597.25 610.798C594.643 612.462 590.124 614.268 587.117 614.268C577.288 614.793 572.368 611.11 572.368 598.166V547.728H601.858L596.805 519.786H572.368V475.948L535.122 471.225V519.795H520.017C517.642 519.795 515.72 521.717 515.72 524.092V543.44C515.72 545.815 517.642 547.737 520.017 547.737H535.122V606.715C534.597 632.575 547.79 645.251 574.699 644.744C588.149 644.744 603.325 640.581 610.798 635.235L599.322 611.43C598.949 610.647 597.979 610.336 597.25 610.798Z" fill="white"/>
<path d="M688.501 517.456C645.526 517.447 628.509 540.433 628.562 581.869C628.615 621.251 645.224 644.202 687.727 644.727C730.694 645.26 746.875 622.247 746.893 581.869C746.91 540.46 730.943 517.473 688.501 517.456ZM686.944 616.794C669.34 616.536 660.035 604.651 659.777 581.869C659.51 558.082 668.824 545.922 686.944 546.171C705.572 546.429 715.393 558.58 715.66 581.869C715.918 605.15 706.079 617.07 686.944 616.794Z" fill="white"/>
<path d="M214.129 152.643C190.635 152.705 174.676 168.504 174.801 191.579C174.916 213.801 192.219 231.041 214.405 231.032C236.546 231.023 253.279 213.73 253.19 190.957C253.101 168.139 237.24 152.58 214.129 152.643Z" fill="white"/>
<path d="M628.785 181.19C624.853 166.636 613.804 156.353 600.399 153.043C605.238 157.313 608.938 162.998 610.753 169.696C615.681 187.906 604.918 206.676 586.708 211.604C574.37 214.949 561.782 211.061 553.411 202.557C559.736 224.111 578.577 234.884 600.247 229.111C622.255 223.231 634.567 202.566 628.785 181.19Z" fill="white"/>
<path d="M752.72 90.7986C782.885 85.2654 805 72.8559 805 72.8559L698.803 0L703.366 35.058H589.439V35.0758C589.208 35.0758 588.985 35.058 588.754 35.058C502.163 35.058 431.967 105.254 431.967 191.845C431.967 227.552 443.923 260.458 464.027 286.816L402.602 348.676L402.584 348.694L402.567 348.676L339.79 285.908C359.467 259.702 371.138 227.143 371.138 191.845C371.138 105.663 301.6 35.7519 215.579 35.0936V35.0669H101.634L106.197 0.00889083L0 72.8648C0 72.8648 22.1236 85.2743 52.2801 90.8075C65.3568 93.2093 72.1176 93.0759 78.7805 93.2538C82.5256 93.3516 87.1157 93.4317 92.2753 93.5029C70.5786 120.404 57.5642 154.599 57.5642 191.845C57.5642 278.436 127.76 348.632 214.351 348.632C243.609 348.632 270.972 340.599 294.413 326.642L360.979 393.208L402.567 434.76L402.584 434.742L402.602 434.76L444.154 393.208L501.674 335.689L509.974 327.389C533.129 340.875 560.021 348.632 588.745 348.632C675.336 348.632 745.532 278.436 745.532 191.845C745.532 154.608 732.527 120.421 710.839 93.5206C716.781 93.4406 722.03 93.3516 726.228 93.2449C732.891 93.0759 739.652 93.2004 752.72 90.7986ZM116.356 191.836C116.356 137.759 160.158 93.921 214.209 93.8498C214.289 93.8498 214.387 93.8498 214.458 93.8498C268.526 93.9121 312.337 137.759 312.337 191.836C312.337 245.958 268.464 289.822 214.351 289.822C160.23 289.831 116.356 245.958 116.356 191.836ZM588.745 289.831C534.624 289.831 490.759 245.958 490.759 191.845C490.759 137.723 534.633 93.8587 588.745 93.8587C642.867 93.8587 686.731 137.732 686.731 191.845C686.74 245.958 642.867 289.831 588.745 289.831Z" fill="#F4C237"/>
</svg>
