<svg xmlns="http://www.w3.org/2000/svg" viewBox="0 0 344.9 344.9" role="img" aria-label="Rango">
  <defs>
    <style>
      .cls-1 {
        fill: url(#linear-gradient-3);
      }

      .cls-2 {
        fill: url(#linear-gradient-2);
      }

      .cls-3 {
        fill: url(#linear-gradient);
      }

      .cls-4 {
        fill: #181b30;
      }

      .cls-5 {
        fill: #fff;
      }

      .cls-6 {
        fill: #070707;
        isolation: isolate;
        opacity: .4;
      }
    </style>
    <linearGradient id="linear-gradient" x1="142.03" y1="1508.55" x2="309.93" y2="1508.55"
      gradientTransform="translate(0 -1420.1)" gradientUnits="userSpaceOnUse">
      <stop offset="0" stop-color="#469bf5" />
      <stop offset="0" stop-color="#3b81f4" />
      <stop offset=".2" stop-color="#3068f3" />
      <stop offset=".3" stop-color="#2754f2" />
      <stop offset=".5" stop-color="#2147f1" />
      <stop offset=".7" stop-color="#1d3ef1" />
      <stop offset="1" stop-color="#1c3cf1" />
    </linearGradient>
    <linearGradient id="linear-gradient-2" x1="35.93" y1="1677.7" x2="201.23" y2="1677.7"
      gradientTransform="translate(0 -1420.1)" gradientUnits="userSpaceOnUse">
      <stop offset="0" stop-color="#469bf5" />
      <stop offset=".2" stop-color="#4292f5" />
      <stop offset=".5" stop-color="#3779f4" />
      <stop offset=".8" stop-color="#2550f2" />
      <stop offset="1" stop-color="#1c3cf1" />
    </linearGradient>
    <linearGradient id="linear-gradient-3" x1="0" y1="1592.55" x2="344.78" y2="1592.55"
      gradientTransform="translate(0 -1420.1)" gradientUnits="userSpaceOnUse">
      <stop offset="0" stop-color="#469bf5" />
      <stop offset=".7" stop-color="#2857f2" />
      <stop offset="1" stop-color="#1c3cf1" />
    </linearGradient>
  </defs>
  <g id="Layer_1-2" data-name="Layer_1">
    <g>
      <path class="cls-3"
        d="M148.73,117.6s7.2,4,18.2,10.1l143-59.3c-5.2-6.8-10.8-13.2-16.9-19.2-1,.6-1.9.9-1.9.9l-149.1,62.7c1.7,1.7,3.9,3.4,6.7,4.9v-.1Z" />
      <path class="cls-2"
        d="M56.53,294.4l144.7-60.3-26.9-15.2-110.4,46.9-28,11.8c5.1,6.6,10.8,12.9,16.8,18.7l3.8-1.9h0Z" />
      <path class="cls-1"
        d="M325.13,92.4l-26.3,10.2c-21.1,7.7-104.1,40.4-104.1,40.4,13.6,7.5,28.2,15.5,41.1,22.6,33,18,12.1,57.6,7.8,65.1,0,.1-.1.2-.2.3-.4.6-.6,1-.6,1,0,0,3.1-29.6-17.7-40.5-21-10.9-69.1-36.6-89.4-47.4-9.5-5.1-16.4-14.3-17.8-25-1-8,1-17.2,10.7-25.3,5.2-4.8,10.7-7.6,11.6-7.9h.2l107.5-44.1s.7-.3,1.7-.8l22.4-9.3C243.93,11.7,209.53,0,172.43,0,77.03,0-1.67,80.3.03,175.6c.5,29.5,8.5,57.1,22,81.1l41.6-18.1,82.8-34.8c-14.3-7.8-27.5-15.1-33.7-18.5-3.1-1.7-7-4.3-10.2-6-16.8-8.9-27.8-33.9-2.3-63.6,0,0-2.6,28.2,13.1,37.8,15.1,9.2,73.6,39.1,90.8,48.4,3.9,2.1,7.5,4.7,10.5,7.9,7.6,8.2,10.6,18.5,7.6,29.5-.1.5-.3,1-.5,1.5-.1.3-.2.6-.3,1-.2.5-.4,1-.5,1.5,0,.1-.1.3-.2.5-5.9,14.3-21.7,18.7-21.7,18.7l-1.9.6-100.7,41.3-22.2,9.8c28.1,19.5,62.2,30.9,99.1,30.7,95.5-.5,173.8-81.3,171.4-176.7-.7-27.2-7.7-52.8-19.6-75.5v-.3Z" />
    </g>
    <polygon class="cls-6" points="146.53 203.5 174.33 218.7 160.43 224.6 131.23 209.9 146.53 203.5" />
    <path class="cls-6" d="M198.93,262.1s23.1-16.4,2.2-28.2l-13.2,5.5s21.9,5.9,11,22.7Z" />
    <polygon class="cls-6" points="194.83 142.9 166.93 127.7 181.23 121.8 210.63 136.7 194.83 142.9" />
    <path class="cls-6" d="M144.33,84.2s-23.4,16.6-2.2,28.5l13.3-5.5s-22.2-5.9-11.1-23Z" />
  </g>
</svg>
