<svg xmlns="http://www.w3.org/2000/svg" fill="none" viewBox="0 0 512 512" class="h-8 w-8">
  <path fill="#000" d="M301.141 241.75h13.609v16.524L182.302 494.25h-19.009l-3.893-3.979 36.493-179.277z"></path>
  <path fill="#FFD500" d="M297.641 238.25h13.609v16.524L178.802 490.75h-19.009l-3.893-3.979 36.493-179.277z"></path>
  <path fill="#FF0" d="m198 311.5 104-68h4v5L206 319l-40.5 164-2.5 1.5v-4.228z"></path>
  <path fill="#000" d="M285.603 216.027 180.124 285.25H160.25v-22.354l53.639-155.485L341.311 25.75h17.439v17.747z">
  </path>
  <path fill="#FFE433" d="M282.103 212.527 176.624 281.75H156.75v-22.354l53.639-155.485L337.811 22.25h17.439v17.747z">
  </path>
  <path fill="#fff" d="M216.471 109.047 164 260.328V273.5l6-4 54.623-152.31 114.721-76.045L352 28.5h-12.656z"></path>
</svg>